<svg width="34" height="25" viewBox="0 0 34 25" fill="none" xmlns="http://www.w3.org/2000/svg">
<path d="M31.9285 20.75C31.9285 21.297 31.7113 21.8216 31.3245 22.2084C30.9377 22.5952 30.4131 22.8125 29.8662 22.8125H5.11756C4.57059 22.8125 4.04601 22.5952 3.65924 22.2084C3.27247 21.8216 3.05518 21.297 3.05518 20.75V8.375C3.05518 7.82799 3.27247 7.30339 3.65924 6.91659C4.04601 6.5298 4.57059 6.3125 5.11756 6.3125H7.53468C9.17476 6.3116 10.7474 5.65952 11.9069 4.49956L13.6187 2.79181C14.0044 2.406 14.5272 2.18871 15.0727 2.1875H19.9069C20.4538 2.18762 20.9783 2.40499 21.365 2.79181L23.0727 4.49956C23.6473 5.07441 24.3296 5.5304 25.0805 5.84147C25.8314 6.15254 26.6363 6.3126 27.449 6.3125H29.8662C30.4131 6.3125 30.9377 6.5298 31.3245 6.91659C31.7113 7.30339 31.9285 7.82799 31.9285 8.375V20.75ZM5.11756 4.25C4.02361 4.25 2.97446 4.6846 2.20091 5.45818C1.42737 6.23177 0.992798 7.28098 0.992798 8.375L0.992798 20.75C0.992798 21.844 1.42737 22.8932 2.20091 23.6668C2.97446 24.4404 4.02361 24.875 5.11756 24.875H29.8662C30.9601 24.875 32.0093 24.4404 32.7828 23.6668C33.5564 22.8932 33.9909 21.844 33.9909 20.75V8.375C33.9909 7.28098 33.5564 6.23177 32.7828 5.45818C32.0093 4.6846 30.9601 4.25 29.8662 4.25H27.449C26.3552 4.24977 25.3062 3.81502 24.5328 3.04138L22.8252 1.33362C22.0518 0.559984 21.0028 0.125234 19.909 0.125H15.0747C13.9809 0.125234 12.9319 0.559984 12.1585 1.33362L10.4509 3.04138C9.67752 3.81502 8.62854 4.24977 7.53468 4.25H5.11756Z" fill="#464E5F"/>
<path d="M17.4921 18.6875C16.1247 18.6875 14.8132 18.1443 13.8463 17.1773C12.8794 16.2103 12.3361 14.8988 12.3361 13.5312C12.3361 12.1637 12.8794 10.8522 13.8463 9.88523C14.8132 8.91825 16.1247 8.375 17.4921 8.375C18.8595 8.375 20.171 8.91825 21.1379 9.88523C22.1048 10.8522 22.6481 12.1637 22.6481 13.5312C22.6481 14.8988 22.1048 16.2103 21.1379 17.1773C20.171 18.1443 18.8595 18.6875 17.4921 18.6875ZM17.4921 20.75C19.4065 20.75 21.2425 19.9895 22.5962 18.6357C23.9499 17.2819 24.7104 15.4458 24.7104 13.5312C24.7104 11.6167 23.9499 9.7806 22.5962 8.42682C21.2425 7.07305 19.4065 6.3125 17.4921 6.3125C15.5777 6.3125 13.7417 7.07305 12.388 8.42682C11.0343 9.7806 10.2738 11.6167 10.2738 13.5312C10.2738 15.4458 11.0343 17.2819 12.388 18.6357C13.7417 19.9895 15.5777 20.75 17.4921 20.75ZM7.18018 9.40625C7.18018 9.67975 7.07154 9.94206 6.87815 10.1355C6.68477 10.3289 6.42248 10.4375 6.14899 10.4375C5.8755 10.4375 5.61321 10.3289 5.41983 10.1355C5.22644 9.94206 5.1178 9.67975 5.1178 9.40625C5.1178 9.13275 5.22644 8.87044 5.41983 8.67705C5.61321 8.48365 5.8755 8.375 6.14899 8.375C6.42248 8.375 6.68477 8.48365 6.87815 8.67705C7.07154 8.87044 7.18018 9.13275 7.18018 9.40625Z" fill="#464E5F"/>
</svg>
