<svg width="80" height="142" viewBox="0 0 80 142" fill="none" xmlns="http://www.w3.org/2000/svg">
<path d="M0 71C1.67806 80.1235 3.14433 89.2795 4.8224 98.4029C10.0847 106.044 15.5262 113.554 20.7884 121.195C28.4293 126.458 35.9399 131.899 43.5808 137.161C52.7042 138.839 61.8603 140.306 70.9837 141.984C80.1072 140.306 89.2632 138.839 98.3866 137.161C106.028 131.899 113.538 126.458 121.179 121.195C126.441 113.554 131.883 106.044 137.145 98.4029C138.823 89.2795 140.289 80.1235 141.967 71C140.289 61.8765 138.823 52.7205 137.145 43.5971C131.883 35.9562 126.441 28.4456 121.179 20.8047C113.538 15.5424 106.028 10.101 98.3866 4.83869C89.2795 3.14433 80.1235 1.67806 71 0C61.8765 1.67806 52.7205 3.14433 43.5971 4.8224C35.9562 10.0847 28.4456 15.5262 20.8047 20.7884C15.5424 28.4293 10.101 35.9399 4.83869 43.5808C3.14433 52.7042 1.67806 61.8765 0 71ZM11.5184 95.6333C10.0195 87.4385 8.68357 79.1948 7.20101 71C8.68357 62.7889 10.0195 54.5615 11.5184 46.3667C16.2593 39.5078 21.1306 32.7467 25.8878 25.8878C32.7467 21.1469 39.5078 16.2593 46.3667 11.5184C54.5615 10.0195 62.8052 8.68357 71 7.20101C79.2111 8.68357 87.4385 10.0195 95.6333 11.5184C102.492 16.2593 109.253 21.1306 116.112 25.8878C120.853 32.7467 125.741 39.5078 130.482 46.3667C131.98 54.5615 133.316 62.8052 134.799 71C133.3 79.1948 131.964 87.4385 130.465 95.6333C125.724 102.492 120.853 109.253 116.096 116.112C109.237 120.853 102.476 125.741 95.617 130.482C87.4222 131.98 79.1785 133.316 70.9837 134.799C62.7726 133.316 54.5452 131.98 46.3504 130.482C39.4915 125.741 32.7304 120.869 25.8715 116.112C21.1469 109.253 16.2593 102.492 11.5184 95.6333Z" fill="#0D0D0D" fill-opacity="0.05"/>
<path d="M63.0658 70.9999C63.2124 72.0263 63.3591 73.069 63.522 74.0954C64.1411 74.9263 64.7602 75.7735 65.3955 76.6044C66.2264 77.2234 67.0573 77.8588 67.9045 78.4779C68.9309 78.6245 69.9736 78.7875 70.9999 78.9341C72.0263 78.7875 73.069 78.6408 74.0954 78.4779C74.9263 77.8588 75.7735 77.2397 76.6044 76.6044C77.2234 75.7735 77.8588 74.9426 78.4779 74.0954C78.6245 73.069 78.7875 72.0263 78.9341 70.9999C78.7875 69.9736 78.6408 68.9309 78.4779 67.9045C77.8588 67.0736 77.2397 66.2264 76.6044 65.3955C75.7735 64.7764 74.9426 64.1411 74.0954 63.522C73.069 63.3753 72.0263 63.2124 70.9999 63.0658C69.9736 63.2124 68.9309 63.3591 67.9045 63.522C67.0736 64.1411 66.2264 64.7602 65.3955 65.3955C64.7764 66.2264 64.1411 67.0573 63.522 67.9045C63.3753 68.9309 63.2124 69.9573 63.0658 70.9999ZM69.664 71.5539C69.6314 71.3747 69.6151 71.1792 69.5825 70.9999C69.6151 70.8207 69.6314 70.6252 69.664 70.446C69.778 70.2994 69.8921 70.1528 70.0061 69.9898C70.1528 69.8758 70.2994 69.7618 70.4623 69.664C70.6415 69.6314 70.837 69.6151 71.0162 69.5825C71.1954 69.6151 71.3909 69.6314 71.5702 69.664C71.7168 69.778 71.8634 69.8921 72.0263 69.9898C72.1404 70.1365 72.2544 70.2831 72.3522 70.446C72.3848 70.6252 72.401 70.8207 72.4336 70.9999C72.401 71.1792 72.3848 71.3747 72.3522 71.5539C72.2381 71.7005 72.1241 71.8471 72.0263 72.01C71.8797 72.1241 71.7331 72.2381 71.5702 72.3522C71.3909 72.3848 71.1954 72.401 71.0162 72.4336C70.837 72.401 70.6415 72.3848 70.4623 72.3522C70.3157 72.2381 70.1691 72.1241 70.0061 72.01C69.8758 71.8471 69.778 71.7005 69.664 71.5539Z" fill="#0D0D0D" fill-opacity="0.05"/>
<path d="M17.4323 71C18.6704 77.8914 19.8109 84.7992 21.049 91.6906C25.0568 97.4417 29.1298 103.128 33.1213 108.879C38.8724 112.87 44.5582 116.959 50.3093 120.951C57.2007 122.189 64.1085 123.313 70.9999 124.568C77.8914 123.329 84.7991 122.189 91.6906 120.951C97.4416 116.943 103.128 112.87 108.879 108.879C112.87 103.128 116.959 97.4417 120.951 91.6906C122.189 84.7992 123.313 77.8914 124.568 71C123.329 64.1085 122.189 57.2007 120.951 50.3093C116.943 44.5583 112.87 38.8724 108.879 33.1214C103.128 29.1298 97.4416 25.0406 91.6906 21.0491C84.7991 19.8109 77.8914 18.6868 70.9999 17.4323C64.1085 18.6705 57.2007 19.8109 50.3093 21.0491C44.5582 25.0569 38.8724 29.1298 33.1213 33.1214C29.1298 38.8724 25.0406 44.5583 21.049 50.3093C19.8109 57.2007 18.6867 64.1085 17.4323 71ZM54.9198 77.647C54.5777 75.4314 54.2519 73.2157 53.9423 70.9837C54.2519 68.768 54.5777 66.536 54.9198 64.3203C56.2395 62.5119 57.5754 60.7035 58.9276 58.9114C60.7198 57.5592 62.5119 56.2232 64.3366 54.9036C66.5522 54.5615 68.7679 54.2356 70.9999 53.9261C73.2156 54.2356 75.4476 54.5615 77.6633 54.9036C79.4717 56.2232 81.2801 57.5592 83.0722 58.9114C84.4244 60.7035 85.7604 62.4956 87.08 64.3203C87.4221 66.536 87.748 68.7517 88.0575 70.9837C87.748 73.1994 87.4221 75.4314 87.08 77.647C85.7604 79.4554 84.4244 81.2638 83.0722 83.0559C81.2801 84.4082 79.488 85.7441 77.6633 87.0637C75.4476 87.4059 73.2319 87.7317 70.9999 88.0413C68.7842 87.7317 66.5522 87.4059 64.3366 87.0637C62.5282 85.7441 60.7198 84.4082 58.9276 83.0559C57.5917 81.2638 56.2558 79.4554 54.9198 77.647ZM38.3999 72.3522C38.3673 72.1241 38.3836 72.1404 38.4162 72.4174C38.4651 72.7595 38.4651 72.7269 38.3999 72.3196C38.3999 72.3359 38.3999 72.3359 38.3999 72.3522ZM48.9081 94.9979C48.7289 94.8676 48.7452 94.8676 48.9733 95.0468C49.2503 95.2586 49.2177 95.2423 48.8919 94.9816L48.9081 94.9979ZM72.3522 103.584C72.1241 103.616 72.1404 103.6 72.4173 103.567C72.7595 103.519 72.7269 103.519 72.3196 103.584C72.3359 103.584 72.3359 103.584 72.3522 103.584ZM94.9979 93.0917C94.8675 93.271 94.8675 93.2547 95.0467 93.0266C95.2585 92.7496 95.2422 92.7822 94.9816 93.108L94.9979 93.0917ZM103.584 69.6477C103.616 69.8758 103.616 69.8595 103.567 69.5826C103.519 69.2404 103.519 69.273 103.584 69.6803C103.584 69.664 103.584 69.6477 103.584 69.6477ZM93.0917 47.002C93.2709 47.1324 93.2546 47.1324 93.0265 46.9532C92.7496 46.7414 92.7822 46.7577 93.108 47.0183C93.108 47.002 93.0917 47.002 93.0917 47.002ZM69.6477 38.3999C69.8758 38.3673 69.8595 38.3836 69.5662 38.4162C69.2241 38.4651 69.2567 38.4651 69.664 38.3999H69.6477ZM47.002 48.9082C47.1323 48.729 47.1323 48.7453 46.9531 48.9733C46.7413 49.2503 46.7576 49.2177 47.0183 48.8919C47.002 48.8919 47.002 48.9082 47.002 48.9082ZM38.3999 69.6803C38.4488 69.273 38.4651 69.2241 38.4162 69.5826C38.3836 69.8595 38.3836 69.8758 38.3999 69.6477C38.3999 69.6477 38.3999 69.664 38.3999 69.6803ZM47.0183 93.108C46.7576 92.7822 46.7413 92.7496 46.9531 93.0266C47.1323 93.2547 47.1323 93.271 47.002 93.0917C47.002 93.0917 47.002 93.108 47.0183 93.108ZM69.6803 103.584C69.273 103.535 69.2241 103.519 69.5825 103.567C69.8595 103.6 69.8758 103.6 69.664 103.584C69.6477 103.584 69.664 103.584 69.6803 103.584ZM93.108 94.9816C92.7822 95.2423 92.7496 95.2586 93.0265 95.0468C93.2546 94.8676 93.2709 94.8676 93.0917 94.9979L93.108 94.9816ZM103.584 72.3196C103.535 72.7269 103.519 72.7758 103.567 72.4174C103.6 72.1404 103.6 72.1241 103.584 72.3522C103.584 72.3359 103.584 72.3359 103.584 72.3196ZM94.9816 48.8919C95.2422 49.2177 95.2585 49.2503 95.0467 48.9733C94.8675 48.7453 94.8675 48.729 94.9979 48.9082L94.9816 48.8919ZM72.3196 38.3999C72.7269 38.4488 72.7757 38.4651 72.4173 38.4162C72.1404 38.3836 72.1241 38.3836 72.3522 38.3999C72.3359 38.3999 72.3359 38.3999 72.3196 38.3999ZM48.8919 47.0183C49.2177 46.7577 49.2503 46.7414 48.9733 46.9532C48.7452 47.1324 48.7289 47.1324 48.9081 47.002C48.9081 47.002 48.8919 47.002 48.8919 47.0183ZM38.5628 71C38.4814 71.2118 38.4325 71.4398 38.3999 71.6842C38.351 71.9286 38.3673 72.173 38.4162 72.4174C38.4162 72.6129 38.4651 72.7921 38.5465 72.9713C38.742 73.3949 38.8724 73.7207 39.2145 74.0465C39.9802 74.796 40.974 74.8611 41.9841 74.7797C44.5093 74.5353 46.888 73.6229 49.2503 72.7758C49.5272 74.7634 49.8205 76.751 50.1138 78.7386C44.0369 79.6672 34.8646 80.433 33.9848 72.9224C33.9033 72.2381 33.9033 71.6028 33.9848 71.0163C33.9033 70.4297 33.9033 69.7944 33.9848 69.1101C34.8646 61.5995 44.0369 62.3653 50.1138 63.2939C49.8042 65.2815 49.5272 67.2691 49.2503 69.2567C46.8717 68.4095 44.5093 67.4972 41.9841 67.2528C40.974 67.1551 39.9802 67.2365 39.2145 67.986C38.8724 68.3118 38.742 68.6376 38.5465 69.0612C38.4651 69.2404 38.4162 69.4196 38.4162 69.6152C38.3673 69.8595 38.351 70.1039 38.3999 70.3483C38.4325 70.5601 38.4814 70.7882 38.5628 71ZM48.061 48.061C47.8492 48.1588 47.6537 48.2728 47.4582 48.4357C47.2464 48.566 47.0835 48.7453 46.9531 48.9571C46.8228 49.1037 46.7087 49.2503 46.6599 49.4295C46.5132 49.8694 46.3666 50.179 46.3666 50.6677C46.3829 51.7267 47.0346 52.4924 47.8166 53.1441C49.7716 54.757 52.1014 55.7834 54.3659 56.8749C53.1603 58.4715 51.9547 60.0844 50.7654 61.6973C45.8127 58.0642 38.7909 52.1177 43.4667 46.1711C43.8903 45.6335 44.3464 45.1936 44.8189 44.8352C45.1773 44.3627 45.6172 43.9066 46.1548 43.483C52.0851 38.7909 58.0316 45.829 61.681 50.7817C60.0681 51.9711 58.4552 53.1604 56.8586 54.3823C55.7833 52.1014 54.7569 49.7879 53.1277 47.8329C52.4761 47.0509 51.7104 46.3992 50.6514 46.3829C50.1789 46.3829 49.8531 46.5133 49.4132 46.6762C49.234 46.7414 49.0711 46.8391 48.9407 46.9694C48.7289 47.0998 48.566 47.2627 48.4194 47.4745C48.2728 47.6537 48.1587 47.8492 48.061 48.061ZM70.9999 38.5628C70.7881 38.4814 70.56 38.4325 70.3157 38.3999C70.0713 38.351 69.8269 38.3673 69.5825 38.4162C69.387 38.4162 69.2078 38.4651 69.0286 38.5465C68.605 38.7421 68.2792 38.8724 67.9533 39.2145C67.2039 39.9802 67.1388 40.974 67.2202 41.9841C67.4646 44.5094 68.3769 46.888 69.2241 49.2503C67.2365 49.5273 65.2489 49.8205 63.2613 50.1138C62.3327 44.0369 61.5669 34.8646 69.0775 33.9848C69.7617 33.9034 70.3971 33.9034 70.9836 33.9848C71.5701 33.9034 72.2055 33.9034 72.8898 33.9848C80.4003 34.8646 79.6346 44.0369 78.706 50.1138C76.7184 49.8042 74.7308 49.5273 72.7432 49.2503C73.5903 46.8717 74.5027 44.5094 74.7471 41.9841C74.8448 40.974 74.7634 39.9802 74.0139 39.2145C73.6881 38.8724 73.3623 38.7421 72.9387 38.5465C72.7595 38.4651 72.5802 38.4162 72.3847 38.4162C72.1404 38.3673 71.896 38.351 71.6516 38.3999C71.4398 38.4325 71.2117 38.4814 70.9999 38.5628ZM93.9389 48.061C93.8411 47.8492 93.7271 47.6537 93.5642 47.4582C93.4338 47.2464 93.2546 47.0835 93.0428 46.9532C92.8962 46.8228 92.7496 46.7088 92.5704 46.6599C92.1305 46.5133 91.8209 46.3666 91.3322 46.3666C90.2732 46.3829 89.5075 47.0346 88.8558 47.8166C87.2429 49.7717 86.2165 52.1014 85.125 54.366C83.5284 53.1604 81.9155 51.9548 80.3026 50.7655C83.9357 45.8127 89.8822 38.7909 95.8287 43.4667C96.3664 43.8903 96.8063 44.3465 97.1647 44.8189C97.6371 45.1773 98.0933 45.6172 98.5169 46.1549C103.209 52.0851 96.1709 58.0316 91.2181 61.681C90.0288 60.0681 88.8232 58.4552 87.6176 56.8586C89.8985 55.7834 92.2119 54.757 94.167 53.1278C94.949 52.4761 95.6007 51.7267 95.617 50.6514C95.617 50.1789 95.4866 49.8531 95.3237 49.4132C95.2585 49.234 95.1608 49.0711 95.0304 48.9408C94.9001 48.729 94.7209 48.5661 94.5254 48.4194C94.3299 48.2728 94.1507 48.1588 93.9389 48.061ZM103.437 71C103.519 70.7882 103.567 70.5601 103.6 70.3157C103.649 70.0713 103.633 69.8269 103.584 69.5826C103.584 69.3871 103.535 69.2079 103.453 69.0286C103.258 68.6051 103.128 68.2792 102.785 67.9534C102.02 67.204 101.026 67.1388 100.016 67.2202C97.4905 67.4646 95.1119 68.377 92.7496 69.2241C92.4726 67.2365 92.1794 65.2489 91.8861 63.2613C97.963 62.3327 107.135 61.567 108.015 69.0775C108.097 69.7618 108.097 70.3972 108.015 70.9837C108.097 71.5702 108.097 72.2056 108.015 72.8898C107.135 80.4004 97.963 79.6347 91.8861 78.706C92.1957 76.7184 92.4726 74.7308 92.7496 72.7432C95.1282 73.5904 97.4905 74.5027 100.016 74.7471C101.026 74.8448 102.02 74.7634 102.785 74.014C103.128 73.6881 103.258 73.3623 103.453 72.9387C103.535 72.7595 103.584 72.5803 103.584 72.3848C103.633 72.1404 103.649 71.896 103.6 71.6516C103.567 71.4398 103.519 71.2118 103.437 71ZM93.9389 93.9389C94.1507 93.8412 94.3462 93.7271 94.5417 93.5642C94.7535 93.4339 94.9164 93.2547 95.0467 93.0429C95.1771 92.8962 95.2911 92.7496 95.34 92.5704C95.4866 92.1305 95.6332 91.821 95.6332 91.3322C95.617 90.2732 94.9653 89.5075 94.1833 88.8559C92.2282 87.243 89.8985 86.2166 87.6339 85.125C88.8395 83.5284 90.0451 81.9155 91.2344 80.3026C96.1872 83.9357 103.209 89.8822 98.5332 95.8288C98.1096 96.3664 97.6534 96.8063 97.181 97.1647C96.8225 97.6372 96.3827 98.0933 95.845 98.5169C89.9148 103.209 83.9683 96.1709 80.3189 91.2182C81.9318 90.0289 83.5447 88.8396 85.1413 87.6177C86.2165 89.8985 87.2429 92.212 88.8721 94.167C89.5238 94.949 90.2895 95.6007 91.3485 95.617C91.8209 95.617 92.1468 95.4866 92.5867 95.3237C92.7659 95.2586 92.9288 95.1608 93.0591 95.0305C93.2709 94.9001 93.4338 94.7209 93.5805 94.5254C93.7108 94.3299 93.8411 94.1507 93.9389 93.9389ZM70.9999 103.437C71.2117 103.519 71.4398 103.567 71.6842 103.6C71.9286 103.649 72.1729 103.633 72.4173 103.584C72.6128 103.584 72.792 103.535 72.9712 103.453C73.3948 103.258 73.7207 103.128 74.0465 102.785C74.7959 102.02 74.8611 101.026 74.7796 100.016C74.5353 97.4905 73.6229 95.1119 72.7757 92.7496C74.7633 92.4726 76.751 92.1794 78.7386 91.8861C79.6672 97.963 80.4329 107.135 72.9224 108.015C72.2381 108.097 71.6027 108.097 71.0162 108.015C70.4297 108.097 69.7943 108.097 69.1101 108.015C61.5995 107.135 62.3652 97.963 63.2939 91.8861C65.2815 92.1957 67.2691 92.4726 69.2567 92.7496C68.4095 95.1282 67.4972 97.4905 67.2528 100.016C67.155 101.026 67.2365 102.02 67.9859 102.785C68.3118 103.128 68.6376 103.258 69.0612 103.453C69.2404 103.535 69.4196 103.584 69.6151 103.584C69.8595 103.633 70.1039 103.649 70.3483 103.6C70.5601 103.567 70.7881 103.519 70.9999 103.437ZM48.061 93.9389C48.1587 94.1507 48.2728 94.3462 48.4357 94.5417C48.566 94.7535 48.7452 94.9164 48.957 95.0468C49.1037 95.1771 49.2503 95.2911 49.4295 95.34C49.8694 95.4866 50.1789 95.6333 50.6677 95.6333C51.7266 95.617 52.4924 94.9653 53.144 94.1833C54.7569 92.2283 55.7833 89.8985 56.8749 87.634C58.4715 88.8396 60.0844 90.0452 61.6973 91.2345C58.0642 96.1872 52.1176 103.209 46.1711 98.5332C45.6335 98.1096 45.1936 97.6535 44.8352 97.181C44.3627 96.8226 43.9065 96.3827 43.483 95.8451C38.7909 89.9148 45.829 83.9683 50.7817 80.3189C51.971 81.9318 53.1766 83.5447 54.3822 85.1413C52.1014 86.2166 49.7879 87.243 47.8329 88.8721C47.0509 89.5238 46.3992 90.2895 46.3829 91.3485C46.3829 91.821 46.5132 92.1468 46.6762 92.5867C46.7413 92.7659 46.8391 92.9288 46.9694 93.0592C47.0998 93.271 47.279 93.4339 47.4745 93.5805C47.6537 93.7108 47.8492 93.8412 48.061 93.9389ZM27.9731 71C27.8591 71.9775 27.8916 73.0364 28.0708 74.1932C29.2276 81.1987 35.2719 83.0722 41.6583 83.1537C37.1943 87.7317 34.2455 93.3198 38.3836 99.1034C39.0679 100.048 39.801 100.814 40.5667 101.433C41.1695 102.199 41.9515 102.932 42.8965 103.616C48.6801 107.754 54.2682 104.806 58.8462 100.342C58.9277 106.728 60.8012 112.772 67.8067 113.929C68.9634 114.125 70.0224 114.141 70.9999 114.027C71.9774 114.141 73.0364 114.108 74.1931 113.929C81.1986 112.772 83.0722 106.728 83.1537 100.342C87.7317 104.806 93.3198 107.754 99.1034 103.616C100.048 102.932 100.814 102.199 101.433 101.433C102.199 100.83 102.932 100.048 103.616 99.1034C107.754 93.3198 104.806 87.7317 100.342 83.1537C106.728 83.0722 112.772 81.1987 113.929 74.1932C114.125 73.0364 114.141 71.9775 114.027 71C114.141 70.0224 114.108 68.9635 113.929 67.8068C112.772 60.8012 106.728 58.9277 100.342 58.8462C104.806 54.2682 107.754 48.6801 103.616 42.8965C102.932 41.9516 102.199 41.1858 101.433 40.5667C100.83 39.801 100.048 39.0679 99.1034 38.3836C93.3198 34.2455 87.7317 37.1943 83.1537 41.6583C83.0722 35.2719 81.1986 29.2276 74.1931 28.0709C73.0364 27.8754 71.9774 27.8591 70.9999 27.9731C70.0224 27.8591 68.9634 27.8917 67.8067 28.0709C60.8012 29.2276 58.9277 35.2719 58.8462 41.6583C54.2682 37.1943 48.6801 34.2455 42.8965 38.3836C41.9515 39.0679 41.1858 39.801 40.5667 40.5667C39.801 41.1695 39.0679 41.9516 38.3836 42.8965C34.2455 48.6801 37.1943 54.2682 41.6583 58.8462C35.2719 58.9277 29.2276 60.8012 28.0708 67.8068C27.8916 68.9635 27.8591 70.0224 27.9731 71ZM25.2361 89.9474C24.1119 83.6425 23.0692 77.3049 21.9451 71C23.0692 64.6787 24.1119 58.3575 25.2361 52.0525C28.9017 46.7902 32.6326 41.5768 36.2982 36.3146C41.5605 32.6489 46.7739 28.9181 52.0362 25.2524C58.3411 24.1282 64.6787 23.0856 70.9836 21.9614C77.3049 23.0856 83.6261 24.1282 89.9311 25.2524C95.1934 28.9181 100.407 32.6489 105.669 36.3146C109.335 41.5768 113.066 46.7902 116.731 52.0525C117.855 58.3575 118.898 64.695 120.022 71C118.898 77.3049 117.855 83.6425 116.731 89.9474C113.066 95.2097 109.335 100.423 105.669 105.685C100.407 109.351 95.1934 113.082 89.9311 116.748C83.6261 117.872 77.2886 118.914 70.9836 120.038C64.6624 118.914 58.3411 117.872 52.0362 116.748C46.7739 113.082 41.5605 109.351 36.2982 105.685C32.6489 100.423 28.9017 95.2097 25.2361 89.9474Z" fill="#0D0D0D" fill-opacity="0.05"/>
</svg>
